<svg width="44" height="44" viewBox="0 0 44 44" fill="none" xmlns="http://www.w3.org/2000/svg">
<rect x="31.6667" y="14.1667" width="15.6667" height="24.8333" rx="1.5" transform="rotate(90 31.6667 14.1667)" stroke="#B8B9B8"/>
<rect x="29.3333" y="16.5" width="11" height="20.1667" rx="0.8" transform="rotate(90 29.3333 16.5)" fill="#B8B9B8"/>
<path fill-rule="evenodd" clip-rule="evenodd" d="M38.2071 16.7929C37.9142 16.5 37.4428 16.5 36.5 16.5H34.8333V27.5H36.5C37.4428 27.5 37.9142 27.5 38.2071 27.2071C38.5 26.9142 38.5 26.4428 38.5 25.5V18.5C38.5 17.5572 38.5 17.0858 38.2071 16.7929Z" fill="#B8B9B8"/>
<path d="M16.1051 42.0795C15.7491 42.0795 15.429 42.0114 15.1449 41.875C14.8627 41.7367 14.6373 41.5473 14.4688 41.3068C14.3002 41.0663 14.2102 40.7917 14.1989 40.483H15.0511C15.072 40.733 15.1828 40.9384 15.3835 41.0994C15.5843 41.2604 15.8248 41.3409 16.1051 41.3409C16.3286 41.3409 16.5265 41.2898 16.6989 41.1875C16.8731 41.0833 17.0095 40.9403 17.108 40.7585C17.2083 40.5767 17.2585 40.3693 17.2585 40.1364C17.2585 39.8996 17.2074 39.6884 17.1051 39.5028C17.0028 39.3172 16.8617 39.1714 16.6818 39.0653C16.5038 38.9593 16.2992 38.9053 16.0682 38.9034C15.892 38.9034 15.715 38.9337 15.5369 38.9943C15.3589 39.0549 15.215 39.1345 15.1051 39.233L14.3011 39.1136L14.6278 36.1818H17.8267V36.9347H15.358L15.1733 38.5625H15.2074C15.321 38.4527 15.4716 38.3608 15.6591 38.2869C15.8485 38.2131 16.0511 38.1761 16.267 38.1761C16.6212 38.1761 16.9366 38.2604 17.2131 38.429C17.4915 38.5975 17.7102 38.8277 17.8693 39.1193C18.0303 39.4091 18.1098 39.7424 18.108 40.1193C18.1098 40.4962 18.0246 40.8324 17.8523 41.1278C17.6818 41.4233 17.4451 41.6562 17.142 41.8267C16.8409 41.9953 16.4953 42.0795 16.1051 42.0795ZM21.1712 42.0966C20.7223 42.0947 20.3388 41.9763 20.0206 41.7415C19.7024 41.5066 19.459 41.1648 19.2905 40.7159C19.1219 40.267 19.0376 39.7263 19.0376 39.0938C19.0376 38.4631 19.1219 37.9242 19.2905 37.4773C19.4609 37.0303 19.7053 36.6894 20.0234 36.4545C20.3435 36.2197 20.7261 36.1023 21.1712 36.1023C21.6162 36.1023 21.9979 36.2206 22.3161 36.4574C22.6342 36.6922 22.8776 37.0331 23.0462 37.4801C23.2166 37.9252 23.3018 38.4631 23.3018 39.0938C23.3018 39.7282 23.2176 40.2699 23.049 40.7188C22.8804 41.1657 22.6371 41.5076 22.3189 41.7443C22.0007 41.9792 21.6181 42.0966 21.1712 42.0966ZM21.1712 41.3381C21.5651 41.3381 21.8729 41.1458 22.0945 40.7614C22.3179 40.3769 22.4297 39.821 22.4297 39.0938C22.4297 38.6108 22.3786 38.2027 22.2763 37.8693C22.1759 37.5341 22.031 37.2803 21.8416 37.108C21.6541 36.9337 21.4306 36.8466 21.1712 36.8466C20.7791 36.8466 20.4714 37.0398 20.2479 37.4261C20.0244 37.8125 19.9117 38.3684 19.9098 39.0938C19.9098 39.5786 19.96 39.9886 20.0604 40.3239C20.1626 40.6572 20.3075 40.91 20.495 41.0824C20.6825 41.2528 20.9079 41.3381 21.1712 41.3381ZM27.3466 40.9091V40.6023C27.3466 40.3826 27.392 40.1818 27.483 40C27.5758 39.8163 27.7102 39.6695 27.8864 39.5597C28.0644 39.4479 28.2794 39.392 28.5312 39.392C28.7888 39.392 29.0047 39.447 29.179 39.5568C29.3532 39.6667 29.4848 39.8134 29.5739 39.9972C29.6648 40.1809 29.7102 40.3826 29.7102 40.6023V40.9091C29.7102 41.1288 29.6648 41.3305 29.5739 41.5142C29.483 41.696 29.3494 41.8428 29.1733 41.9545C28.9991 42.0644 28.785 42.1193 28.5312 42.1193C28.2756 42.1193 28.0597 42.0644 27.8835 41.9545C27.7074 41.8428 27.5739 41.696 27.483 41.5142C27.392 41.3305 27.3466 41.1288 27.3466 40.9091ZM28.0085 40.6023V40.9091C28.0085 41.072 28.0473 41.2197 28.125 41.3523C28.2027 41.4848 28.3381 41.5511 28.5312 41.5511C28.7225 41.5511 28.8561 41.4848 28.9318 41.3523C29.0076 41.2197 29.0455 41.072 29.0455 40.9091V40.6023C29.0455 40.4394 29.0085 40.2917 28.9347 40.1591C28.8627 40.0265 28.7282 39.9602 28.5312 39.9602C28.3419 39.9602 28.2074 40.0265 28.1278 40.1591C28.0483 40.2917 28.0085 40.4394 28.0085 40.6023ZM24.4205 37.5795V37.2727C24.4205 37.053 24.4659 36.8513 24.5568 36.6676C24.6496 36.4839 24.7841 36.3371 24.9602 36.2273C25.1383 36.1174 25.3532 36.0625 25.6051 36.0625C25.8627 36.0625 26.0786 36.1174 26.2528 36.2273C26.4271 36.3371 26.5587 36.4839 26.6477 36.6676C26.7367 36.8513 26.7812 37.053 26.7812 37.2727V37.5795C26.7812 37.7992 26.7358 38.0009 26.6449 38.1847C26.5559 38.3665 26.4233 38.5133 26.2472 38.625C26.0729 38.7348 25.8589 38.7898 25.6051 38.7898C25.3475 38.7898 25.1307 38.7348 24.9545 38.625C24.7803 38.5133 24.6477 38.3665 24.5568 38.1847C24.4659 38.0009 24.4205 37.7992 24.4205 37.5795ZM25.0852 37.2727V37.5795C25.0852 37.7424 25.1231 37.8902 25.1989 38.0227C25.2765 38.1553 25.4119 38.2216 25.6051 38.2216C25.7945 38.2216 25.9271 38.1553 26.0028 38.0227C26.0805 37.8902 26.1193 37.7424 26.1193 37.5795V37.2727C26.1193 37.1098 26.0824 36.9621 26.0085 36.8295C25.9347 36.697 25.8002 36.6307 25.6051 36.6307C25.4157 36.6307 25.2813 36.697 25.2017 36.8295C25.1241 36.9621 25.0852 37.1098 25.0852 37.2727ZM24.6903 42L28.6903 36.1818H29.3693L25.3693 42H24.6903Z" fill="black"/>
</svg>
