<svg width="27" height="27" viewBox="0 0 27 27" fill="none" xmlns="http://www.w3.org/2000/svg">
<path fill-rule="evenodd" clip-rule="evenodd" d="M9.32611 11.25C10.2942 7.99707 13.3076 5.625 16.875 5.625C21.2242 5.625 24.75 9.15076 24.75 13.5C24.75 17.8492 21.2242 21.375 16.875 21.375H7.25C4.48857 21.375 2.25 19.1364 2.25 16.375V16.25C2.25 13.4886 4.48857 11.25 7.25 11.25H9.32611Z" fill="#CEDC27"/>
<path d="M9.32611 11.25L10.2846 11.5352L10.0718 12.25H9.32611V11.25ZM16.875 6.625C13.7621 6.625 11.13 8.69469 10.2846 11.5352L8.36766 10.9648C9.4585 7.29946 12.8531 4.625 16.875 4.625V6.625ZM23.75 13.5C23.75 9.70304 20.672 6.625 16.875 6.625V4.625C21.7765 4.625 25.75 8.59847 25.75 13.5H23.75ZM16.875 20.375C20.672 20.375 23.75 17.297 23.75 13.5H25.75C25.75 18.4015 21.7765 22.375 16.875 22.375V20.375ZM7.25 20.375H16.875V22.375H7.25V20.375ZM3.25 16.375C3.25 18.5841 5.04086 20.375 7.25 20.375V22.375C3.93629 22.375 1.25 19.6887 1.25 16.375H3.25ZM3.25 16.25V16.375H1.25V16.25H3.25ZM7.25 12.25C5.04086 12.25 3.25 14.0409 3.25 16.25H1.25C1.25 12.9363 3.93629 10.25 7.25 10.25V12.25ZM9.32611 12.25H7.25V10.25H9.32611V12.25Z" fill="#CEDC27" fill-opacity="0.7"/>
</svg>
