<svg width="70" height="39" viewBox="0 0 70 39" fill="none" xmlns="http://www.w3.org/2000/svg">
<mask id="mask0_109_837" style="mask-type:luminance" maskUnits="userSpaceOnUse" x="20" y="1" width="30" height="37">
<path d="M20.2708 1.30005H49.9236V37.7501H20.2708V1.30005Z" fill="white"/>
</mask>
<g mask="url(#mask0_109_837)">
<path d="M34.4799 29.6463H35.7242L36.2859 32.1782L35.1037 34.9884L33.9214 32.1782L34.4799 29.6463ZM42.2003 28.7504C43.1834 28.7279 43.9999 29.5039 44.0195 30.4806C44.0195 30.4968 44.0195 30.5161 44.0195 30.5323C44.0227 31.5056 43.2291 32.3012 42.2461 32.3076C41.2598 32.3108 40.4564 31.525 40.4532 30.5485C40.4532 30.5419 40.4532 30.5387 40.4532 30.5323C40.4433 29.5654 41.2239 28.7698 42.2003 28.7504ZM37.1873 28.2362L37.8274 28.5046L36.6843 31.2146L36.2859 29.4166L37.1873 28.2362ZM33.02 28.2362L33.8985 29.4166L33.5001 31.2146L32.3604 28.5046L33.02 28.2362ZM35.1037 27.3728L36.6059 27.997L35.8222 29.048H34.3819L33.5785 27.997L35.1037 27.3728ZM39.3689 24.8408L38.069 27.9517L35.7633 27.0009L39.3689 24.8408ZM30.8156 24.8408L34.4406 27.0009L32.1382 27.9517L30.8156 24.8408ZM30.0122 24.4818L34.6823 35.5512C34.7771 35.7806 35.0416 35.8907 35.2734 35.7968C35.3878 35.7483 35.4759 35.661 35.5216 35.5512L40.1919 24.4818L41.9326 25.0348V28.1909C40.6294 28.3559 39.7052 29.5362 39.8717 30.8298C40.0383 32.1201 41.2304 33.0352 42.5368 32.8703C43.843 32.7054 44.764 31.525 44.5975 30.2316C44.4604 29.1676 43.6144 28.3269 42.5368 28.1909V25.2289L46.0801 26.3573C47.0337 26.6615 47.7426 27.4602 47.9254 28.4367L49.2873 35.7355C49.4081 36.3855 48.9704 37.0127 48.3139 37.1292C48.2389 37.1421 48.1605 37.1519 48.0853 37.1519H22.0991C21.4295 37.1453 20.8906 36.6022 20.8973 35.9392C20.8973 35.8713 20.9037 35.8002 20.9168 35.7321L22.2787 28.4335C22.4616 27.4602 23.1702 26.6615 24.1206 26.3541L27.6673 25.2289V26.7002C26.7528 26.823 26.0083 27.499 25.8059 28.3914L24.7639 32.9446C24.6922 33.2519 24.7738 33.5752 24.9861 33.8146C25.2539 34.1088 25.6 34.3255 25.9853 34.4355C26.103 34.775 26.472 34.9593 26.8181 34.8429C27.1611 34.7297 27.3439 34.361 27.2296 34.0215C27.1153 33.6821 26.7431 33.4977 26.4002 33.614C26.276 33.6529 26.1683 33.7304 26.0867 33.834C25.8417 33.7499 25.6228 33.6012 25.4466 33.4135C25.3583 33.323 25.3224 33.1968 25.3454 33.0772L26.3871 28.524C26.5863 27.6639 27.4518 27.1237 28.3205 27.321C28.9248 27.4602 29.3949 27.9257 29.532 28.524L30.5935 33.0772C30.6197 33.1968 30.5804 33.323 30.4923 33.4135C30.3191 33.6012 30.1003 33.7499 29.8522 33.834C29.6334 33.5495 29.2219 33.4943 28.9344 33.7144C28.6471 33.9311 28.5915 34.3384 28.8137 34.623C29.0324 34.9076 29.4439 34.9625 29.7314 34.7426C29.8358 34.6651 29.9143 34.5583 29.9534 34.4355C30.3388 34.3255 30.6882 34.1088 30.956 33.8146C31.1683 33.5752 31.2499 33.2519 31.1749 32.9446L30.133 28.3914C29.9306 27.499 29.1893 26.823 28.2715 26.7002V25.0348L30.0122 24.4818ZM32.0566 21.7266C32.6086 22.0985 33.2584 22.2958 33.9214 22.2958H36.2664C36.9357 22.299 37.5922 22.0985 38.1474 21.7266V22.9036C38.1474 23.4955 38.3923 24.0646 38.83 24.4688L35.1037 26.697L31.3773 24.4688C31.8116 24.0646 32.0598 23.4955 32.0566 22.9036V21.7266ZM39.0292 20.9926C40.7078 21.2705 41.9358 22.7097 41.9358 24.3945V24.4075L40.231 23.8674C40.0645 23.8124 39.8816 23.835 39.7314 23.9257L39.3885 24.1389C38.9901 23.8512 38.7516 23.3921 38.7484 22.9036V21.235C38.8431 21.1541 38.9377 21.0734 39.0292 20.9926ZM31.1749 20.9926C31.2695 21.0734 31.361 21.1575 31.4558 21.235V22.9036C31.4523 23.3921 31.2173 23.8544 30.8156 24.1389L30.4532 23.9257C30.3028 23.835 30.1231 23.8124 29.9566 23.8642L28.2715 24.4041V24.3913C28.2715 22.7097 29.4995 21.2705 31.1781 20.9926H31.1749ZM43.056 11.317C43.1572 11.317 43.2487 11.3849 43.2747 11.4786C43.4251 12.0317 43.438 12.6105 43.3172 13.17C43.2519 13.6646 42.9743 14.1046 42.5564 14.3761V11.6663C42.664 11.5207 42.8078 11.4043 42.9743 11.3332C43.0005 11.3234 43.0299 11.3202 43.0592 11.317H43.056ZM27.1187 11.3073C27.1579 11.3073 27.1937 11.317 27.2264 11.3332C27.3897 11.4075 27.5268 11.5239 27.6282 11.6663V14.3761C27.2101 14.1014 26.9325 13.6614 26.8671 13.17C26.7464 12.6105 26.7595 12.0317 26.9064 11.4786C26.9325 11.3817 27.0173 11.3139 27.1187 11.3073ZM29.4112 6.0783C32.811 7.89891 36.7268 8.53273 40.5314 7.86975C41.1913 7.75333 41.8183 8.18667 41.939 8.83667C41.9489 8.90776 41.9554 8.97904 41.9554 9.05014V16.061C41.9554 16.7078 41.7235 17.3318 41.2957 17.8202C40.2931 18.9715 39.2089 20.045 38.0494 21.0411C37.553 21.4646 36.9194 21.6943 36.2664 21.6943H33.9214C33.2682 21.6943 32.6346 21.4646 32.1382 21.0411C30.9854 20.045 29.9076 18.9715 28.9116 17.8202C28.4871 17.3318 28.252 16.7078 28.252 16.061V8.88839C28.2812 8.85924 28.3074 8.82689 28.3336 8.79454C28.977 8.02492 29.3526 7.07418 29.4112 6.0783ZM35.9103 1.32781C33.4348 1.27929 31.0181 2.06188 29.052 3.5494C27.749 3.52683 26.6516 4.50014 26.5276 5.78396C26.3839 6.70874 26.4786 7.65628 26.8085 8.53273C26.9357 8.8788 27.2623 9.10825 27.6314 9.11483V10.8675C27.5792 10.8384 27.5268 10.8092 27.4714 10.7867C27.05 10.6023 26.5603 10.7899 26.374 11.2038C26.3544 11.2426 26.3413 11.2847 26.3282 11.3234C26.1617 11.9605 26.1486 12.6298 26.2891 13.2734C26.397 14.056 26.9064 14.7286 27.6314 15.0585V16.061C27.6347 16.8533 27.9254 17.6164 28.4512 18.2114C29.1403 19.0102 29.8717 19.7734 30.636 20.4977C28.879 20.9958 27.6705 22.5835 27.6705 24.3913V24.5982L23.9442 25.785C22.7751 26.1536 21.9031 27.1303 21.6777 28.3269L20.3158 35.6223C20.1362 36.6022 20.7862 37.5399 21.7757 37.7178C21.8801 37.7404 21.9912 37.75 22.0991 37.75H48.0853C49.0913 37.7598 49.9111 36.961 49.9208 35.965C49.9208 35.8519 49.9111 35.7355 49.8881 35.6223L48.5262 28.3269C48.3043 27.1303 47.4323 26.1536 46.263 25.785L42.5368 24.5982V24.3913C42.5368 22.5771 41.3153 20.986 39.5518 20.4977C40.3225 19.7734 41.0606 19.0102 41.7562 18.2114C42.2755 17.6132 42.5596 16.8499 42.5564 16.061V15.0585C43.291 14.7352 43.8072 14.0592 43.9182 13.2734C44.0586 12.6298 44.0455 11.9605 43.8789 11.3234C43.7646 10.8837 43.3108 10.6185 42.8632 10.7317C42.8142 10.7445 42.762 10.7641 42.7163 10.7867C42.6608 10.8092 42.6086 10.8384 42.5564 10.8675V10.3308C43.0658 10.0622 43.4251 9.58052 43.536 9.02098C43.7745 7.71139 43.6961 6.36287 43.314 5.08863C43.1017 4.38371 42.6576 3.76926 42.0534 3.34251C40.2572 2.07486 38.1179 1.36975 35.9103 1.32781Z" fill="#B8B9B8"/>
</g>
<mask id="mask1_109_837" style="mask-type:luminance" maskUnits="userSpaceOnUse" x="35" y="3" width="3" height="4">
<path d="M35 3.14795H37.625V6.32573H35V3.14795Z" fill="white"/>
</mask>
<g mask="url(#mask1_109_837)">
<path d="M36.2671 5.62041H36.3754L36.4242 5.84084L36.3214 6.08534L36.2187 5.84084L36.2671 5.62041ZM36.9386 5.54236C37.024 5.54048 37.095 5.608 37.0967 5.69301C37.0967 5.69433 37.0967 5.69602 37.0967 5.69752C37.0969 5.78216 37.028 5.85156 36.9425 5.85212C36.8567 5.85231 36.7868 5.78385 36.7867 5.69884C36.7867 5.69828 36.7867 5.69809 36.7867 5.69752C36.7857 5.61326 36.8537 5.54405 36.9386 5.54236ZM36.5026 5.4976L36.5582 5.52111L36.4589 5.75696L36.4242 5.60047L36.5026 5.4976ZM36.1403 5.4976L36.2166 5.60047L36.182 5.75696L36.0829 5.52111L36.1403 5.4976ZM36.3214 5.42255L36.4521 5.47691L36.3839 5.56831H36.2586L36.1889 5.47691L36.3214 5.42255ZM36.6923 5.20212L36.5793 5.47296L36.3788 5.3902L36.6923 5.20212ZM35.9485 5.20212L36.2637 5.3902L36.0636 5.47296L35.9485 5.20212ZM35.8786 5.1709L36.2848 6.13443C36.2929 6.15437 36.3161 6.16396 36.3362 6.15568C36.3461 6.15155 36.3537 6.14402 36.3577 6.13443L36.7639 5.1709L36.9152 5.21905V5.49365C36.8018 5.50813 36.7215 5.61082 36.736 5.72348C36.7506 5.83576 36.8543 5.91532 36.9678 5.90102C37.0814 5.88673 37.1615 5.78385 37.1471 5.67138C37.1351 5.57866 37.0614 5.5055 36.9678 5.49365V5.23579L37.276 5.33416C37.3588 5.36049 37.4205 5.43008 37.4364 5.51509L37.5547 6.15042C37.5654 6.20703 37.5272 6.26157 37.4702 6.27173C37.4636 6.27286 37.4568 6.27361 37.4503 6.27361H35.1906C35.1324 6.27304 35.0855 6.22584 35.086 6.1681C35.086 6.16227 35.0866 6.15606 35.0877 6.15004L35.2062 5.5149C35.2222 5.43008 35.2837 5.36049 35.3663 5.33378L35.6749 5.23579V5.36387C35.5953 5.37459 35.5305 5.43346 35.5129 5.51114L35.4223 5.90742C35.416 5.93431 35.4231 5.96234 35.4417 5.98322C35.4648 6.00879 35.495 6.0276 35.5285 6.03719C35.5387 6.06672 35.5708 6.0829 35.601 6.07274C35.6308 6.06277 35.6466 6.0308 35.6367 6.00127C35.6268 5.97174 35.5943 5.95557 35.5645 5.96572C35.5537 5.96911 35.5444 5.97588 35.5374 5.98491C35.5161 5.97757 35.4969 5.9646 35.4817 5.94823C35.474 5.94033 35.4709 5.92942 35.4728 5.91908L35.5634 5.5228C35.5809 5.44776 35.6561 5.40074 35.7316 5.41804C35.784 5.43008 35.8251 5.4707 35.837 5.5228L35.9293 5.91908C35.9316 5.92942 35.9282 5.94033 35.9204 5.94823C35.9054 5.9646 35.8864 5.97757 35.8647 5.98491C35.8458 5.96008 35.8099 5.95538 35.785 5.97456C35.7599 5.99337 35.7552 6.02873 35.7744 6.05356C35.7935 6.07838 35.8292 6.08308 35.8543 6.0639C35.8634 6.05732 35.8703 6.04791 35.8735 6.03719C35.9071 6.0276 35.9375 6.00879 35.9608 5.98322C35.9793 5.96234 35.9863 5.93431 35.9798 5.90742L35.8892 5.51114C35.8716 5.43346 35.807 5.37459 35.7273 5.36387V5.21905L35.8786 5.1709ZM36.0565 4.9311C36.1044 4.96345 36.161 4.98057 36.2187 4.98057H36.4224C36.4807 4.98094 36.5379 4.96345 36.5861 4.9311V5.03342C36.5861 5.08495 36.6074 5.1346 36.6454 5.16977L36.3214 5.36368L35.9975 5.16977C36.0351 5.1346 36.0567 5.08495 36.0565 5.03342V4.9311ZM36.6628 4.86716C36.8087 4.89142 36.9156 5.01668 36.9156 5.16319V5.16432L36.7673 5.1173C36.7529 5.1126 36.7369 5.11448 36.7238 5.12238L36.694 5.141C36.6594 5.11598 36.6387 5.07592 36.6383 5.03342V4.88822C36.6465 4.88126 36.6549 4.87411 36.6628 4.86716ZM35.9798 4.86716C35.988 4.87411 35.996 4.88145 36.0041 4.88822V5.03342C36.0039 5.07592 35.9834 5.11617 35.9485 5.141L35.917 5.12238C35.9039 5.11448 35.8883 5.1126 35.8739 5.11711L35.7273 5.16413V5.163C35.7273 5.01668 35.8342 4.89142 35.98 4.86716H35.9798ZM37.013 4.02494C37.0217 4.02494 37.0297 4.03096 37.032 4.03905C37.0451 4.08719 37.0462 4.1376 37.0356 4.18631C37.0299 4.22938 37.0058 4.26756 36.9695 4.29126V4.05541C36.9788 4.04262 36.9913 4.03265 37.0058 4.02644C37.0081 4.0255 37.0107 4.02532 37.0132 4.02494H37.013ZM35.627 4.02419C35.6304 4.02419 35.6337 4.02494 35.6365 4.02644C35.6506 4.03284 35.6625 4.043 35.6714 4.05541V4.29126C35.635 4.26737 35.6109 4.229 35.6052 4.18631C35.5947 4.1376 35.5959 4.08719 35.6086 4.03905C35.6109 4.03058 35.6183 4.02475 35.627 4.02419ZM35.8264 3.56904C36.122 3.7274 36.4625 3.78269 36.7935 3.72495C36.8508 3.7148 36.9053 3.75241 36.9158 3.80903C36.9167 3.81523 36.9173 3.82144 36.9173 3.82764V4.43796C36.9173 4.4942 36.897 4.54855 36.8599 4.59106C36.7726 4.6913 36.6784 4.78459 36.5776 4.87129C36.5345 4.90816 36.4792 4.92828 36.4224 4.92828H36.2187C36.1617 4.92828 36.1067 4.90816 36.0636 4.87129C35.9633 4.78459 35.8697 4.6913 35.7829 4.59106C35.7461 4.54855 35.7256 4.4942 35.7256 4.43796V3.81354C35.7282 3.81109 35.7305 3.80827 35.7328 3.80545C35.7886 3.7385 35.8213 3.65574 35.8264 3.56904ZM36.3915 3.15545C36.1764 3.15131 35.9661 3.2194 35.7952 3.3488C35.6819 3.34692 35.5864 3.43155 35.5757 3.54327C35.5632 3.62377 35.5714 3.70633 35.6 3.78269C35.6112 3.81279 35.6395 3.83272 35.6716 3.83329V3.98582C35.6671 3.98337 35.6625 3.98074 35.6578 3.97886C35.6211 3.96269 35.5786 3.97905 35.5623 4.01516C35.5605 4.01854 35.5594 4.02212 35.5583 4.0255C35.5438 4.08099 35.5427 4.13929 35.5549 4.19534C35.5643 4.26342 35.6086 4.32192 35.6716 4.35069V4.43796C35.672 4.5068 35.6973 4.57319 35.7428 4.6251C35.8028 4.69469 35.8665 4.76108 35.9329 4.82409C35.7801 4.86734 35.6751 5.00558 35.6751 5.163V5.18106L35.3511 5.28431C35.2493 5.31648 35.1736 5.4013 35.154 5.5055L35.0355 6.14064C35.0199 6.22584 35.0763 6.30746 35.1625 6.32289C35.1715 6.32495 35.1812 6.32571 35.1906 6.32571H37.4503C37.5377 6.32665 37.6091 6.25706 37.6098 6.17035C37.6098 6.16057 37.6091 6.15042 37.607 6.14064L37.4887 5.5055C37.4693 5.4013 37.3935 5.31648 37.2918 5.28431L36.9678 5.18106V5.163C36.9678 5.00502 36.8617 4.86659 36.7082 4.82409C36.7753 4.76108 36.8394 4.69469 36.8998 4.6251C36.945 4.573 36.9697 4.50661 36.9695 4.43796V4.35069C37.0333 4.32248 37.0783 4.26361 37.088 4.19534C37.1002 4.13929 37.099 4.08099 37.0846 4.0255C37.0745 3.98732 37.035 3.96419 36.9961 3.97397C36.9919 3.9751 36.9874 3.97679 36.9834 3.97886C36.9786 3.98074 36.9741 3.98337 36.9695 3.98582V3.93918C37.0138 3.91567 37.0451 3.87372 37.0548 3.8252C37.0755 3.71104 37.0686 3.59367 37.0354 3.4829C37.017 3.42139 36.9782 3.36798 36.9258 3.33093C36.7696 3.22053 36.5835 3.15921 36.3915 3.15545Z" fill="#1fbfac"/>
</g>
</svg>
