<svg width="96" height="54" viewBox="0 0 96 54" fill="none" xmlns="http://www.w3.org/2000/svg">
<path d="M64.0083 8.56663C64.0083 8.10152 63.6281 7.72131 63.163 7.72131C62.6979 7.72131 62.3224 8.10152 62.3224 8.56663C62.3224 9.03173 62.6979 9.41194 63.163 9.41194C63.6281 9.41194 64.0083 9.03173 64.0083 8.56663Z" fill="#FF7518"/>
<mask id="mask0_10_58" style="mask-type:luminance" maskUnits="userSpaceOnUse" x="64" y="13" width="3" height="3">
<path d="M64.7333 13.4667H66.4768V15.2H64.7333V13.4667Z" fill="white"/>
</mask>
<g mask="url(#mask0_10_58)">
<path d="M66.4813 14.3357C66.486 13.8705 66.1146 13.4859 65.6495 13.4815C65.18 13.4771 64.7998 13.8482 64.7953 14.3177C64.7953 14.3221 64.7953 14.3265 64.7953 14.3357C64.7909 14.8008 65.162 15.181 65.6271 15.1854C66.0969 15.1942 66.4768 14.8187 66.4813 14.3536C66.4813 14.3489 66.4813 14.3401 66.4813 14.3357Z" fill="#FF7518"/>
</g>
<path d="M56.9109 19.9882C56.9109 19.5231 56.531 19.1432 56.0659 19.1432C55.6008 19.1432 55.225 19.5231 55.225 19.9882C55.225 20.4533 55.6008 20.8336 56.0659 20.8336C56.531 20.8336 56.9109 20.4533 56.9109 19.9882Z" fill="#FF7518"/>
<path d="M54.93 10.3958C54.9568 5.65073 51.1287 1.7825 46.3792 1.76011C41.6344 1.73771 37.7706 5.56584 37.7482 10.3106C37.7482 10.3375 37.7482 10.369 37.7482 10.3958C37.7258 15.1406 41.5539 19.0044 46.2987 19.0268C51.0438 19.0492 54.9076 15.221 54.93 10.4763C54.9344 10.4494 54.9344 10.4226 54.93 10.3958Z" fill="#FF7518"/>
<path d="M60.2383 19.501C59.1159 17.8416 57.6133 16.4687 55.8557 15.5028C55.8065 15.4804 55.7438 15.5028 55.7214 15.5521C55.7036 15.5877 55.7081 15.6281 55.7305 15.6594C56.9109 17.1127 57.944 18.687 58.8073 20.3552C59.0175 20.762 59.5227 20.9229 59.9341 20.7083C60.3411 20.4982 60.5021 19.9929 60.2919 19.5815C60.274 19.5547 60.2607 19.5278 60.2427 19.501H60.2383Z" fill="#FF7518"/>
<path d="M62.3312 11.1156C60.851 12.019 59.2052 12.6182 57.4924 12.8823C57.4344 12.8912 57.4028 12.9492 57.412 13.0029C57.4208 13.0432 57.4521 13.0745 57.4924 13.0833C59.3708 13.562 61.3518 13.3919 63.1229 12.605C63.5476 12.4128 63.7354 11.9117 63.5476 11.487C63.3554 11.0664 62.8544 10.8742 62.4297 11.0664C62.3984 11.08 62.3669 11.0979 62.3401 11.1156H62.3312Z" fill="#FF7518"/>
<path d="M57.5417 14.4518C60.037 15.5208 62.2776 17.1039 64.1201 19.0896C64.4154 19.4294 64.925 19.4651 65.2649 19.1701C65.6003 18.8747 65.6362 18.3651 65.3409 18.025C65.3232 18.0073 65.3052 17.9893 65.2873 17.9669C63.2211 15.8919 60.5065 14.5815 57.5953 14.2552C57.5373 14.2508 57.488 14.2909 57.4789 14.3445C57.4745 14.3893 57.5013 14.4341 57.5417 14.4518Z" fill="#FF7518"/>
<mask id="mask1_10_58" style="mask-type:luminance" maskUnits="userSpaceOnUse" x="29" y="21" width="36" height="32">
<path d="M29.5104 21.4H64.7334V52.174H29.5104V21.4Z" fill="white"/>
</mask>
<g mask="url(#mask1_10_58)">
<path d="M52.8862 32.5371C53.1188 32.7519 53.481 32.7384 53.6956 32.5058C53.736 32.4657 53.7672 32.4165 53.794 32.3628L57.394 24.8451C58.3198 22.9355 60.6185 22.1305 62.5326 23.0563C64.4375 23.973 65.2427 26.2628 64.3302 28.1725L57.7294 41.9464C56.8841 43.7084 54.7646 44.4553 53.0024 43.61C52.8102 43.5162 52.6268 43.4089 52.4568 43.2837L50.2388 41.6826C49.9839 41.4949 49.6261 41.5529 49.4427 41.8079C49.3891 41.8795 49.3531 41.9644 49.3399 42.0493L47.806 51.1902C47.712 51.7581 47.2201 52.1787 46.6432 52.174H30.6912C30.0427 52.1787 29.5104 51.6509 29.5104 50.998C29.5104 50.9308 29.5151 50.8639 29.5284 50.8011L33.3654 27.8907C34.0766 23.6779 38.0612 20.8337 42.2784 21.5402C44.7784 21.9608 46.9203 23.5839 47.9982 25.8826C49.1789 28.3959 50.8425 30.6589 52.8862 32.5371Z" fill="#FF7518"/>
</g>
</svg>
