<svg width="38" height="38" viewBox="0 0 38 38" fill="none" xmlns="http://www.w3.org/2000/svg">
<path fill-rule="evenodd" clip-rule="evenodd" d="M19.3795 5.49522C19.1316 5.42305 18.8684 5.42305 18.6205 5.49522C18.5492 5.516 18.4239 5.56797 18.1572 5.76988C17.8767 5.98222 17.5334 6.28611 16.9984 6.76167L7.85174 14.892C6.97997 15.6669 6.73284 15.9006 6.56103 16.159C6.39576 16.4076 6.27264 16.6818 6.19662 16.9705C6.1176 17.2706 6.10715 17.6106 6.10715 18.7769V28.2783C6.10715 29.4604 6.10824 30.264 6.15979 30.8848C6.21 31.4893 6.30095 31.7979 6.41274 32.0131C6.67026 32.5088 7.07447 32.9131 7.57022 33.1706C7.78544 33.2824 8.09403 33.3733 8.69855 33.4235C9.31932 33.4751 10.1229 33.4762 11.305 33.4762H12.8929V28.5C12.8929 28.4684 12.8929 28.4373 12.8928 28.4067C12.8927 27.8673 12.8926 27.4677 12.9393 27.1128C13.26 24.6769 15.1769 22.76 17.6129 22.4393C17.9677 22.3926 18.3673 22.3927 18.9067 22.3928C18.9373 22.3928 18.9684 22.3928 19 22.3928C19.0316 22.3928 19.0627 22.3928 19.0933 22.3928C19.6327 22.3927 20.0323 22.3926 20.3871 22.4393C22.8231 22.76 24.74 24.6769 25.0607 27.1128C25.1074 27.4677 25.1073 27.8673 25.1072 28.4067C25.1072 28.4373 25.1071 28.4684 25.1071 28.5V33.4762H26.695C27.8771 33.4762 28.6807 33.4751 29.3015 33.4235C29.906 33.3733 30.2146 33.2824 30.4298 33.1706C30.9255 32.9131 31.3298 32.5088 31.5873 32.0131C31.6991 31.7979 31.79 31.4893 31.8402 30.8848C31.8918 30.264 31.8929 29.4604 31.8929 28.2783V18.7769C31.8929 17.6106 31.8824 17.2706 31.8034 16.9705C31.7274 16.6818 31.6043 16.4076 31.439 16.159C31.2672 15.9006 31.02 15.6669 30.1483 14.892L21.0016 6.76167C20.4666 6.28611 20.1233 5.98222 19.8428 5.76988C19.5762 5.56797 19.4508 5.516 19.3795 5.49522ZM17.8616 2.8892C18.6051 2.67267 19.3949 2.67267 20.1384 2.8892C20.6543 3.03944 21.0821 3.30366 21.4812 3.60587C21.8572 3.89049 22.2805 4.26682 22.768 4.70018L31.9515 12.8633C31.99 12.8975 32.028 12.9313 32.0655 12.9646C32.7735 13.5932 33.3084 14.0682 33.6994 14.6564C34.0299 15.1536 34.2762 15.702 34.4282 16.2794C34.6081 16.9624 34.6077 17.6777 34.6072 18.6245C34.6072 18.6746 34.6071 18.7254 34.6071 18.7769V28.3353C34.6072 29.4462 34.6072 30.363 34.5452 31.1094C34.4808 31.8848 34.3426 32.5971 33.996 33.2643C33.4809 34.2558 32.6725 35.0642 31.681 35.5793C31.0138 35.9259 30.3015 36.0641 29.5261 36.1285C28.7797 36.1905 27.8628 36.1905 26.752 36.1905L24.8106 36.1905C24.6462 36.1905 24.4499 36.1906 24.2771 36.1762C24.0766 36.1596 23.7897 36.1169 23.4902 35.9613C23.1184 35.7681 22.8152 35.465 22.6221 35.0931C22.4665 34.7936 22.4237 34.5067 22.4071 34.3063C22.3927 34.1334 22.3928 33.9371 22.3929 33.7728L22.3929 28.5C22.3929 27.8266 22.3899 27.6213 22.3696 27.4671C22.2093 26.2491 21.2509 25.2907 20.0329 25.1303C19.8787 25.11 19.6734 25.1071 19 25.1071C18.3266 25.1071 18.1213 25.11 17.9671 25.1303C16.7492 25.2907 15.7907 26.2491 15.6304 27.4671C15.6101 27.6213 15.6072 27.8266 15.6072 28.5L15.6072 33.7728C15.6072 33.9371 15.6073 34.1334 15.5929 34.3063C15.5763 34.5067 15.5336 34.7936 15.378 35.0931C15.1848 35.465 14.8817 35.7681 14.5099 35.9613C14.2103 36.1169 13.9234 36.1596 13.723 36.1762C13.5501 36.1906 13.3538 36.1905 13.1894 36.1905L11.248 36.1905C10.1372 36.1905 9.22035 36.1905 8.47391 36.1285C7.69851 36.0641 6.98622 35.9259 6.319 35.5793C5.32751 35.0642 4.51909 34.2558 4.00405 33.2643C3.65746 32.5971 3.51921 31.8848 3.45482 31.1094C3.39283 30.363 3.39285 29.4462 3.39286 28.3353L3.39286 18.7769C3.39286 18.7254 3.39284 18.6746 3.39281 18.6245C3.39232 17.6777 3.39195 16.9624 3.5718 16.2794C3.72384 15.702 3.97009 15.1536 4.30063 14.6564C4.69166 14.0681 5.22649 13.5932 5.93447 12.9646C5.97198 12.9313 6.00998 12.8975 6.04846 12.8633L15.232 4.70016C15.7195 4.26681 16.1428 3.89049 16.5188 3.60587C16.9179 3.30366 17.3457 3.03944 17.8616 2.8892Z" fill="#1fbfac"/>
</svg>
