<svg width="340" height="67" viewBox="0 0 340 67" fill="none" xmlns="http://www.w3.org/2000/svg">
<path fill-rule="evenodd" clip-rule="evenodd" d="M13.8455 26.5812C13.125 28.1476 13.125 29.9297 13.125 33.4938V44.6248C13.125 49.5746 13.125 52.0495 14.6627 53.5872C16.2004 55.1248 18.6753 55.1248 23.625 55.1248H23.9375V42C23.9375 39.998 25.5605 38.375 27.5625 38.375H35.4375C37.4395 38.375 39.0625 39.998 39.0625 42V55.1248H39.375C44.3247 55.1248 46.7996 55.1248 48.3373 53.5872C49.875 52.0495 49.875 49.5746 49.875 44.6248V33.4938C49.875 29.9297 49.875 28.1476 49.1545 26.5812C48.4341 25.0148 47.081 23.855 44.375 21.5355L41.75 19.2855C36.8588 15.0931 34.4132 12.9968 31.5 12.9968C28.5868 12.9968 26.1412 15.0931 21.25 19.2855L18.625 21.5355C15.919 23.855 14.5659 25.0148 13.8455 26.5812ZM37.0625 55.1248V42C37.0625 41.1025 36.335 40.375 35.4375 40.375H27.5625C26.665 40.375 25.9375 41.1025 25.9375 42V55.1248H37.0625Z" fill="white"/>
<path d="M20.5291 66V60.1818H21.7592V62.5824H24.2564V60.1818H25.4837V66H24.2564V63.5966H21.7592V66H20.5291ZM28.4467 66.0852C28.0054 66.0852 27.6238 65.9915 27.3018 65.804C26.9818 65.6146 26.7346 65.3513 26.5604 65.0142C26.3861 64.6752 26.299 64.2822 26.299 63.8352C26.299 63.3845 26.3861 62.9905 26.5604 62.6534C26.7346 62.3144 26.9818 62.0511 27.3018 61.8636C27.6238 61.6742 28.0054 61.5795 28.4467 61.5795C28.888 61.5795 29.2687 61.6742 29.5888 61.8636C29.9107 62.0511 30.1589 62.3144 30.3331 62.6534C30.5073 62.9905 30.5945 63.3845 30.5945 63.8352C30.5945 64.2822 30.5073 64.6752 30.3331 65.0142C30.1589 65.3513 29.9107 65.6146 29.5888 65.804C29.2687 65.9915 28.888 66.0852 28.4467 66.0852ZM28.4524 65.1477C28.6532 65.1477 28.8208 65.0909 28.9553 64.9773C29.0897 64.8617 29.1911 64.7045 29.2592 64.5057C29.3293 64.3068 29.3643 64.0805 29.3643 63.8267C29.3643 63.5729 29.3293 63.3466 29.2592 63.1477C29.1911 62.9489 29.0897 62.7917 28.9553 62.6761C28.8208 62.5606 28.6532 62.5028 28.4524 62.5028C28.2498 62.5028 28.0793 62.5606 27.9411 62.6761C27.8047 62.7917 27.7015 62.9489 27.6314 63.1477C27.5632 63.3466 27.5291 63.5729 27.5291 63.8267C27.5291 64.0805 27.5632 64.3068 27.6314 64.5057C27.7015 64.7045 27.8047 64.8617 27.9411 64.9773C28.0793 65.0909 28.2498 65.1477 28.4524 65.1477ZM31.3814 66V61.6364H32.5348V62.4062H32.5859C32.6768 62.1506 32.8284 61.9489 33.0405 61.8011C33.2526 61.6534 33.5064 61.5795 33.8018 61.5795C34.1011 61.5795 34.3558 61.6544 34.5661 61.804C34.7763 61.9517 34.9164 62.1525 34.9865 62.4062H35.032C35.121 62.1562 35.282 61.9564 35.5149 61.8068C35.7498 61.6553 36.0272 61.5795 36.3473 61.5795C36.7545 61.5795 37.085 61.7093 37.3388 61.9688C37.5945 62.2263 37.7223 62.5919 37.7223 63.0653V66H36.5149V63.304C36.5149 63.0616 36.4505 62.8797 36.3217 62.7585C36.1929 62.6373 36.032 62.5767 35.8388 62.5767C35.6191 62.5767 35.4477 62.6468 35.3246 62.7869C35.2015 62.9252 35.1399 63.108 35.1399 63.3352V66H33.9666V63.2784C33.9666 63.0644 33.9051 62.8939 33.782 62.767C33.6607 62.6402 33.5007 62.5767 33.3018 62.5767C33.1674 62.5767 33.0462 62.6108 32.9382 62.679C32.8321 62.7453 32.7479 62.839 32.6854 62.9602C32.6229 63.0795 32.5916 63.2197 32.5916 63.3807V66H31.3814ZM40.6669 66.0852C40.218 66.0852 39.8317 65.9943 39.5078 65.8125C39.1858 65.6288 38.9377 65.3693 38.7635 65.0341C38.5893 64.697 38.5021 64.2983 38.5021 63.8381C38.5021 63.3892 38.5893 62.9953 38.7635 62.6562C38.9377 62.3172 39.183 62.053 39.4993 61.8636C39.8175 61.6742 40.1906 61.5795 40.6186 61.5795C40.9065 61.5795 41.1745 61.6259 41.4226 61.7188C41.6726 61.8097 41.8904 61.947 42.076 62.1307C42.2635 62.3144 42.4093 62.5455 42.5135 62.8239C42.6177 63.1004 42.6697 63.4242 42.6697 63.7955V64.1278H38.9851V63.3778H41.5305C41.5305 63.2036 41.4927 63.0492 41.4169 62.9148C41.3411 62.7803 41.236 62.6752 41.1016 62.5994C40.969 62.5218 40.8146 62.483 40.6385 62.483C40.4548 62.483 40.2919 62.5256 40.1499 62.6108C40.0097 62.6941 39.8999 62.8068 39.8203 62.9489C39.7408 63.089 39.7 63.2453 39.6982 63.4176V64.1307C39.6982 64.3466 39.7379 64.5331 39.8175 64.6903C39.8989 64.8475 40.0135 64.9688 40.1612 65.054C40.3089 65.1392 40.4841 65.1818 40.6868 65.1818C40.8213 65.1818 40.9444 65.1629 41.0561 65.125C41.1679 65.0871 41.2635 65.0303 41.343 64.9545C41.4226 64.8788 41.4832 64.786 41.5249 64.6761L42.6442 64.75C42.5874 65.0189 42.4709 65.2538 42.2947 65.4545C42.1205 65.6534 41.8951 65.8087 41.6186 65.9205C41.344 66.0303 41.0268 66.0852 40.6669 66.0852Z" fill="white"/>
<path d="M167.948 62.2188H166.703C166.681 62.0578 166.634 61.9148 166.564 61.7898C166.494 61.6629 166.404 61.5549 166.294 61.4659C166.185 61.3769 166.058 61.3087 165.914 61.2614C165.772 61.214 165.617 61.1903 165.451 61.1903C165.15 61.1903 164.887 61.2652 164.664 61.4148C164.44 61.5625 164.267 61.7784 164.144 62.0625C164.021 62.3447 163.959 62.6875 163.959 63.0909C163.959 63.5057 164.021 63.8542 164.144 64.1364C164.269 64.4186 164.443 64.6316 164.667 64.7756C164.89 64.9195 165.149 64.9915 165.442 64.9915C165.607 64.9915 165.759 64.9697 165.9 64.9261C166.042 64.8826 166.167 64.8191 166.277 64.7358C166.387 64.6506 166.478 64.5473 166.55 64.4261C166.624 64.3049 166.675 64.1667 166.703 64.0114L167.948 64.017C167.916 64.2841 167.835 64.5417 167.706 64.7898C167.579 65.036 167.408 65.2566 167.192 65.4517C166.978 65.6449 166.722 65.7983 166.425 65.9119C166.13 66.0237 165.795 66.0795 165.422 66.0795C164.903 66.0795 164.439 65.9621 164.03 65.7273C163.623 65.4924 163.301 65.1525 163.064 64.7074C162.829 64.2623 162.712 63.7235 162.712 63.0909C162.712 62.4564 162.831 61.9167 163.07 61.4716C163.309 61.0265 163.632 60.6875 164.042 60.4545C164.451 60.2197 164.911 60.1023 165.422 60.1023C165.759 60.1023 166.072 60.1496 166.36 60.2443C166.65 60.339 166.906 60.4773 167.13 60.6591C167.353 60.839 167.535 61.0597 167.675 61.321C167.817 61.5824 167.908 61.8816 167.948 62.2188ZM170.779 66.0852C170.337 66.0852 169.956 65.9915 169.634 65.804C169.314 65.6146 169.067 65.3513 168.892 65.0142C168.718 64.6752 168.631 64.2822 168.631 63.8352C168.631 63.3845 168.718 62.9905 168.892 62.6534C169.067 62.3144 169.314 62.0511 169.634 61.8636C169.956 61.6742 170.337 61.5795 170.779 61.5795C171.22 61.5795 171.601 61.6742 171.921 61.8636C172.243 62.0511 172.491 62.3144 172.665 62.6534C172.839 62.9905 172.926 63.3845 172.926 63.8352C172.926 64.2822 172.839 64.6752 172.665 65.0142C172.491 65.3513 172.243 65.6146 171.921 65.804C171.601 65.9915 171.22 66.0852 170.779 66.0852ZM170.784 65.1477C170.985 65.1477 171.153 65.0909 171.287 64.9773C171.422 64.8617 171.523 64.7045 171.591 64.5057C171.661 64.3068 171.696 64.0805 171.696 63.8267C171.696 63.5729 171.661 63.3466 171.591 63.1477C171.523 62.9489 171.422 62.7917 171.287 62.6761C171.153 62.5606 170.985 62.5028 170.784 62.5028C170.582 62.5028 170.411 62.5606 170.273 62.6761C170.137 62.7917 170.033 62.9489 169.963 63.1477C169.895 63.3466 169.861 63.5729 169.861 63.8267C169.861 64.0805 169.895 64.3068 169.963 64.5057C170.033 64.7045 170.137 64.8617 170.273 64.9773C170.411 65.0909 170.582 65.1477 170.784 65.1477ZM174.924 63.4773V66H173.713V61.6364H174.867V62.4062H174.918C175.015 62.1525 175.176 61.9517 175.404 61.804C175.631 61.6544 175.907 61.5795 176.23 61.5795C176.533 61.5795 176.798 61.6458 177.023 61.7784C177.248 61.911 177.424 62.1004 177.549 62.3466C177.674 62.5909 177.736 62.8826 177.736 63.2216V66H176.526V63.4375C176.528 63.1705 176.46 62.9621 176.321 62.8125C176.183 62.661 175.993 62.5852 175.75 62.5852C175.587 62.5852 175.444 62.6203 175.319 62.6903C175.195 62.7604 175.099 62.8627 175.029 62.9972C174.961 63.1297 174.926 63.2898 174.924 63.4773ZM182.321 62.8807L181.213 62.9489C181.194 62.8542 181.153 62.7689 181.091 62.6932C181.028 62.6155 180.946 62.554 180.843 62.5085C180.743 62.4612 180.623 62.4375 180.483 62.4375C180.295 62.4375 180.137 62.4773 180.008 62.5568C179.879 62.6345 179.815 62.7386 179.815 62.8693C179.815 62.9735 179.857 63.0616 179.94 63.1335C180.023 63.2055 180.166 63.2633 180.369 63.3068L181.159 63.4659C181.583 63.553 181.899 63.6932 182.108 63.8864C182.316 64.0795 182.42 64.3333 182.42 64.6477C182.42 64.9337 182.336 65.1847 182.167 65.4006C182.001 65.6165 181.771 65.785 181.48 65.9062C181.19 66.0256 180.856 66.0852 180.477 66.0852C179.899 66.0852 179.439 65.965 179.096 65.7244C178.755 65.482 178.556 65.1525 178.497 64.7358L179.687 64.6733C179.723 64.8494 179.81 64.9839 179.949 65.0767C180.087 65.1676 180.264 65.2131 180.48 65.2131C180.692 65.2131 180.862 65.1723 180.991 65.0909C181.122 65.0076 181.188 64.9006 181.19 64.7699C181.188 64.66 181.142 64.5701 181.051 64.5C180.96 64.428 180.82 64.3731 180.63 64.3352L179.875 64.1847C179.449 64.0994 179.131 63.9517 178.923 63.7415C178.717 63.5312 178.613 63.2633 178.613 62.9375C178.613 62.6572 178.689 62.4157 178.841 62.2131C178.994 62.0104 179.209 61.8542 179.485 61.7443C179.764 61.6345 180.09 61.5795 180.463 61.5795C181.014 61.5795 181.448 61.696 181.764 61.929C182.082 62.1619 182.268 62.4792 182.321 62.8807ZM185.98 64.142V61.6364H187.191V66H186.029V65.2074H185.983C185.885 65.4631 185.721 65.6686 185.492 65.8239C185.265 65.9792 184.987 66.0568 184.659 66.0568C184.368 66.0568 184.111 65.9905 183.89 65.858C183.668 65.7254 183.495 65.5369 183.37 65.2926C183.247 65.0483 183.184 64.7557 183.182 64.4148V61.6364H184.392V64.1989C184.394 64.4564 184.463 64.66 184.6 64.8097C184.736 64.9593 184.919 65.0341 185.148 65.0341C185.294 65.0341 185.43 65.0009 185.557 64.9347C185.684 64.8665 185.786 64.7661 185.864 64.6335C185.944 64.5009 185.982 64.3371 185.98 64.142ZM189.369 60.1818V66H188.159V60.1818H189.369ZM192.659 61.6364V62.5455H190.032V61.6364H192.659ZM190.628 60.5909H191.838V64.6591C191.838 64.7708 191.855 64.858 191.89 64.9205C191.924 64.9811 191.971 65.0237 192.032 65.0483C192.094 65.0729 192.166 65.0852 192.248 65.0852C192.304 65.0852 192.361 65.0805 192.418 65.071C192.475 65.0597 192.518 65.0511 192.549 65.0455L192.739 65.946C192.678 65.965 192.593 65.9867 192.483 66.0114C192.373 66.0379 192.24 66.054 192.083 66.0597C191.791 66.071 191.535 66.0322 191.316 65.9432C191.098 65.8542 190.928 65.7159 190.807 65.5284C190.686 65.3409 190.626 65.1042 190.628 64.8182V60.5909ZM194.692 66.0824C194.414 66.0824 194.166 66.0341 193.948 65.9375C193.73 65.839 193.558 65.6941 193.431 65.5028C193.306 65.3097 193.243 65.0691 193.243 64.7812C193.243 64.5388 193.288 64.3352 193.377 64.1705C193.466 64.0057 193.587 63.8731 193.74 63.7727C193.894 63.6723 194.068 63.5966 194.263 63.5455C194.46 63.4943 194.667 63.4583 194.882 63.4375C195.136 63.411 195.341 63.3864 195.496 63.3636C195.651 63.339 195.764 63.303 195.834 63.2557C195.904 63.2083 195.939 63.1383 195.939 63.0455V63.0284C195.939 62.8485 195.882 62.7093 195.769 62.6108C195.657 62.5123 195.498 62.4631 195.292 62.4631C195.074 62.4631 194.9 62.5114 194.772 62.608C194.643 62.7027 194.558 62.822 194.516 62.9659L193.397 62.875C193.453 62.6098 193.565 62.3807 193.732 62.1875C193.899 61.9924 194.114 61.8428 194.377 61.7386C194.642 61.6326 194.949 61.5795 195.297 61.5795C195.54 61.5795 195.772 61.608 195.993 61.6648C196.217 61.7216 196.415 61.8097 196.587 61.929C196.761 62.0483 196.899 62.2017 196.999 62.3892C197.099 62.5748 197.15 62.7973 197.15 63.0568V66H196.002V65.3949H195.968C195.898 65.5312 195.804 65.6515 195.686 65.7557C195.569 65.858 195.428 65.9384 195.263 65.9972C195.098 66.054 194.908 66.0824 194.692 66.0824ZM195.039 65.2472C195.217 65.2472 195.374 65.2121 195.51 65.142C195.647 65.0701 195.754 64.9735 195.831 64.8523C195.909 64.7311 195.948 64.5937 195.948 64.4403V63.9773C195.91 64.0019 195.858 64.0246 195.792 64.0455C195.727 64.0644 195.654 64.0824 195.573 64.0994C195.491 64.1146 195.41 64.1288 195.328 64.142C195.247 64.1534 195.173 64.1638 195.107 64.1733C194.965 64.1941 194.841 64.2273 194.735 64.2727C194.629 64.3182 194.546 64.3797 194.488 64.4574C194.429 64.5331 194.4 64.6278 194.4 64.7415C194.4 64.9062 194.459 65.0322 194.578 65.1193C194.7 65.2045 194.853 65.2472 195.039 65.2472ZM199.299 63.4773V66H198.088V61.6364H199.242V62.4062H199.293C199.39 62.1525 199.551 61.9517 199.779 61.804C200.006 61.6544 200.282 61.5795 200.605 61.5795C200.908 61.5795 201.173 61.6458 201.398 61.7784C201.623 61.911 201.799 62.1004 201.924 62.3466C202.049 62.5909 202.111 62.8826 202.111 63.2216V66H200.901V63.4375C200.903 63.1705 200.835 62.9621 200.696 62.8125C200.558 62.661 200.368 62.5852 200.125 62.5852C199.962 62.5852 199.819 62.6203 199.694 62.6903C199.57 62.7604 199.474 62.8627 199.404 62.9972C199.336 63.1297 199.301 63.2898 199.299 63.4773ZM205.386 61.6364V62.5455H202.758V61.6364H205.386ZM203.355 60.5909H204.565V64.6591C204.565 64.7708 204.582 64.858 204.616 64.9205C204.65 64.9811 204.698 65.0237 204.758 65.0483C204.821 65.0729 204.893 65.0852 204.974 65.0852C205.031 65.0852 205.088 65.0805 205.145 65.071C205.201 65.0597 205.245 65.0511 205.275 65.0455L205.466 65.946C205.405 65.965 205.32 65.9867 205.21 66.0114C205.1 66.0379 204.967 66.054 204.809 66.0597C204.518 66.071 204.262 66.0322 204.042 65.9432C203.824 65.8542 203.655 65.7159 203.534 65.5284C203.413 65.3409 203.353 65.1042 203.355 64.8182V60.5909Z" fill="white"/>
<path d="M315.314 66V60.1818H317.61C318.051 60.1818 318.427 60.2661 318.738 60.4347C319.048 60.6013 319.285 60.8333 319.448 61.1307C319.613 61.4261 319.695 61.767 319.695 62.1534C319.695 62.5398 319.612 62.8807 319.445 63.1761C319.278 63.4716 319.037 63.7017 318.721 63.8665C318.406 64.0312 318.025 64.1136 317.578 64.1136H316.115V63.1278H317.38C317.616 63.1278 317.811 63.0871 317.965 63.0057C318.12 62.9223 318.236 62.8078 318.311 62.6619C318.389 62.5142 318.428 62.3447 318.428 62.1534C318.428 61.9602 318.389 61.7917 318.311 61.6477C318.236 61.5019 318.12 61.3892 317.965 61.3097C317.81 61.2282 317.613 61.1875 317.374 61.1875H316.544V66H315.314ZM320.471 66V61.6364H321.645V62.3977H321.69C321.77 62.1269 321.903 61.9223 322.091 61.7841C322.278 61.6439 322.494 61.5739 322.738 61.5739C322.799 61.5739 322.864 61.5777 322.934 61.5852C323.004 61.5928 323.066 61.6032 323.119 61.6165V62.6903C323.062 62.6733 322.984 62.6581 322.883 62.6449C322.783 62.6316 322.691 62.625 322.608 62.625C322.43 62.625 322.27 62.6638 322.13 62.7415C321.992 62.8172 321.882 62.9233 321.801 63.0597C321.721 63.196 321.681 63.3532 321.681 63.5312V66H320.471ZM325.513 66.0852C325.072 66.0852 324.69 65.9915 324.368 65.804C324.048 65.6146 323.801 65.3513 323.627 65.0142C323.453 64.6752 323.365 64.2822 323.365 63.8352C323.365 63.3845 323.453 62.9905 323.627 62.6534C323.801 62.3144 324.048 62.0511 324.368 61.8636C324.69 61.6742 325.072 61.5795 325.513 61.5795C325.954 61.5795 326.335 61.6742 326.655 61.8636C326.977 62.0511 327.225 62.3144 327.4 62.6534C327.574 62.9905 327.661 63.3845 327.661 63.8352C327.661 64.2822 327.574 64.6752 327.4 65.0142C327.225 65.3513 326.977 65.6146 326.655 65.804C326.335 65.9915 325.954 66.0852 325.513 66.0852ZM325.519 65.1477C325.72 65.1477 325.887 65.0909 326.022 64.9773C326.156 64.8617 326.257 64.7045 326.326 64.5057C326.396 64.3068 326.431 64.0805 326.431 63.8267C326.431 63.5729 326.396 63.3466 326.326 63.1477C326.257 62.9489 326.156 62.7917 326.022 62.6761C325.887 62.5606 325.72 62.5028 325.519 62.5028C325.316 62.5028 325.146 62.5606 325.007 62.6761C324.871 62.7917 324.768 62.9489 324.698 63.1477C324.63 63.3466 324.596 63.5729 324.596 63.8267C324.596 64.0805 324.63 64.3068 324.698 64.5057C324.768 64.7045 324.871 64.8617 325.007 64.9773C325.146 65.0909 325.316 65.1477 325.519 65.1477ZM330.794 61.6364V62.5455H328.101V61.6364H330.794ZM328.718 66V61.321C328.718 61.0047 328.779 60.7424 328.902 60.5341C329.027 60.3258 329.198 60.1695 329.414 60.0653C329.63 59.9612 329.875 59.9091 330.15 59.9091C330.335 59.9091 330.505 59.9233 330.658 59.9517C330.813 59.9801 330.929 60.0057 331.005 60.0284L330.789 60.9375C330.741 60.9223 330.683 60.9081 330.613 60.8949C330.544 60.8816 330.474 60.875 330.402 60.875C330.224 60.875 330.1 60.9167 330.03 61C329.96 61.0814 329.925 61.196 329.925 61.3438V66H328.718ZM331.534 66V61.6364H332.744V66H331.534ZM332.142 61.0739C331.962 61.0739 331.807 61.0142 331.679 60.8949C331.552 60.7737 331.488 60.6288 331.488 60.4602C331.488 60.2936 331.552 60.1506 331.679 60.0312C331.807 59.91 331.962 59.8494 332.142 59.8494C332.322 59.8494 332.475 59.91 332.602 60.0312C332.731 60.1506 332.795 60.2936 332.795 60.4602C332.795 60.6288 332.731 60.7737 332.602 60.8949C332.475 61.0142 332.322 61.0739 332.142 61.0739ZM334.924 60.1818V66H333.713V60.1818H334.924ZM337.882 66.0852C337.433 66.0852 337.047 65.9943 336.723 65.8125C336.401 65.6288 336.153 65.3693 335.978 65.0341C335.804 64.697 335.717 64.2983 335.717 63.8381C335.717 63.3892 335.804 62.9953 335.978 62.6562C336.153 62.3172 336.398 62.053 336.714 61.8636C337.032 61.6742 337.405 61.5795 337.833 61.5795C338.121 61.5795 338.389 61.6259 338.637 61.7188C338.887 61.8097 339.105 61.947 339.291 62.1307C339.478 62.3144 339.624 62.5455 339.728 62.8239C339.833 63.1004 339.885 63.4242 339.885 63.7955V64.1278H336.2V63.3778H338.745C338.745 63.2036 338.708 63.0492 338.632 62.9148C338.556 62.7803 338.451 62.6752 338.316 62.5994C338.184 62.5218 338.029 62.483 337.853 62.483C337.67 62.483 337.507 62.5256 337.365 62.6108C337.225 62.6941 337.115 62.8068 337.035 62.9489C336.956 63.089 336.915 63.2453 336.913 63.4176V64.1307C336.913 64.3466 336.953 64.5331 337.032 64.6903C337.114 64.8475 337.228 64.9688 337.376 65.054C337.524 65.1392 337.699 65.1818 337.902 65.1818C338.036 65.1818 338.159 65.1629 338.271 65.125C338.383 65.0871 338.478 65.0303 338.558 64.9545C338.637 64.8788 338.698 64.786 338.74 64.6761L339.859 64.75C339.802 65.0189 339.686 65.2538 339.51 65.4545C339.335 65.6534 339.11 65.8087 338.833 65.9205C338.559 66.0303 338.242 66.0852 337.882 66.0852Z" fill="#CEDC27"/>
</svg>
