<svg width="54" height="30" viewBox="0 0 54 30" fill="none" xmlns="http://www.w3.org/2000/svg">
<mask id="mask0_10_113" style="mask-type:luminance" maskUnits="userSpaceOnUse" x="13" y="2" width="28" height="26">
<path d="M13.2 2.07324H40.8V27.0741H13.2V2.07324Z" fill="white"/>
</mask>
<g mask="url(#mask0_10_113)">
<path fill-rule="evenodd" clip-rule="evenodd" d="M22.0959 5.04498C22.0959 5.04498 18.4279 5.77762 15.3368 13.6338C13.4822 17.8672 10.3086 32.0733 19.0048 25.1941C19.0872 25.1941 19.0872 25.1535 19.1697 25.1127C25.8876 21.4086 25.5991 17.3788 24.8161 11.5171L26.2585 10.3367V12.2905C26.2585 12.6976 26.6294 13.0233 27.0416 13.0233C27.4537 13.0233 27.7834 12.6976 27.7834 12.2905V10.4181L29.1847 11.68C28.4017 17.4194 28.1543 21.4086 34.8311 25.1127C34.8723 25.1535 34.9136 25.1941 34.9547 25.1941C43.6921 32.0733 40.5186 17.8672 38.6228 13.6338C35.5317 5.77762 31.8636 5.04498 31.8636 5.04498C30.8334 4.75997 29.8853 5.69632 29.803 6.59171C29.6794 7.93503 29.5144 9.19689 29.3496 10.4181L27.7834 8.99334V2.80613C27.7834 2.39915 27.4537 2.07349 27.0416 2.07349C26.6294 2.07349 26.2585 2.39915 26.2585 2.80613V8.99334L24.6512 10.3367C24.4864 9.15624 24.3214 7.93503 24.1978 6.59171C24.1155 5.69632 23.1674 4.75997 22.0959 5.04498Z" fill="#09B9A4"/>
</g>
</svg>
