<svg width="221" height="124" viewBox="0 0 221 124" fill="none" xmlns="http://www.w3.org/2000/svg">
<path d="M50.7822 29.8243C62.9535 16.7151 84.5932 -0.0843737 89.247 29.9971C89.2727 30.1352 89.3116 30.2692 89.3637 30.4002C89.4158 30.5305 89.4798 30.6543 89.5565 30.7727C89.6325 30.8905 89.7199 30.9999 89.8175 31.101C89.915 31.2021 90.0216 31.2924 90.1371 31.3725C90.2527 31.4526 90.3748 31.5214 90.5035 31.5776C90.6322 31.6338 90.7651 31.6775 90.9028 31.7074C91.0399 31.7379 91.1787 31.7552 91.3194 31.7582C91.4601 31.7618 91.5996 31.751 91.7379 31.7277C91.8767 31.7038 92.0114 31.6667 92.1425 31.6165C92.2742 31.5662 92.3993 31.5035 92.5185 31.4287C92.6376 31.3546 92.7483 31.269 92.8507 31.1728C92.9531 31.0765 93.0453 30.9712 93.1273 30.857C93.2087 30.7428 93.2787 30.622 93.3374 30.494C93.3955 30.3661 93.4404 30.2339 93.4727 30.097C93.505 29.9606 93.5242 29.8219 93.5295 29.6814C93.5343 29.5414 93.526 29.4015 93.5044 29.2628C91.5379 17.822 87.1943 11.0873 80.6465 9.2521C66.6218 5.34481 48.2967 26.0898 47.519 26.9748C47.4287 27.0825 47.3502 27.1973 47.282 27.3205C47.2143 27.4431 47.1593 27.5716 47.1168 27.705C47.0737 27.8384 47.0443 27.9747 47.0282 28.114C47.012 28.2534 47.009 28.3933 47.0198 28.5326C47.0312 28.6726 47.0551 28.8101 47.0928 28.9452C47.1305 29.0804 47.1808 29.2107 47.2437 29.3357C47.3065 29.4613 47.3814 29.5791 47.467 29.6903C47.5532 29.801 47.6489 29.9026 47.7543 29.9947C47.8603 30.0874 47.974 30.1687 48.0955 30.2387C48.2164 30.3093 48.344 30.3667 48.4768 30.4127C48.6091 30.4582 48.745 30.4905 48.8845 30.5096C49.0234 30.5287 49.1629 30.5347 49.303 30.5263C49.443 30.5186 49.5813 30.4976 49.7172 30.4629C49.8531 30.4277 49.9848 30.3804 50.1117 30.32C50.2386 30.2602 50.3583 30.1885 50.4709 30.1047C50.584 30.0216 50.6876 29.9277 50.7822 29.8243Z" fill="white"/>
<path d="M155.718 20.3259C142.534 12.9717 129.51 25.0488 122.396 32.7815C103.531 36.7611 80.1382 38.8105 75.9137 30.9474C75.703 30.5324 75.4666 30.133 75.2044 29.7485C74.9416 29.3645 74.6554 28.9986 74.3453 28.6517C74.0352 28.3043 73.7042 27.9784 73.3522 27.6746C72.9996 27.3702 72.6297 27.0898 72.2406 26.8332C71.8521 26.5773 71.4486 26.3471 71.0301 26.1431C70.6117 25.9386 70.1819 25.7628 69.7401 25.6145C69.2989 25.4656 68.8499 25.3466 68.3932 25.2563C67.9364 25.166 67.4755 25.1056 67.011 25.0751C66.6578 25.0715 66.3058 25.0871 65.9538 25.1206C65.6024 25.1547 65.254 25.2073 64.908 25.2779C64.562 25.349 64.2208 25.4375 63.8843 25.5446C63.5479 25.6516 63.2181 25.776 62.8948 25.9183C62.5715 26.06 62.2567 26.2191 61.9508 26.3943C61.6443 26.5695 61.3479 26.7603 61.0618 26.9672C60.7756 27.1741 60.5015 27.3953 60.2387 27.631C59.9759 27.8666 59.7269 28.1159 59.4904 28.3779C59.2857 28.6117 59.0732 28.8383 58.8523 29.0572C58.632 29.276 58.4039 29.4871 58.1686 29.6904C57.9334 29.8938 57.6915 30.0887 57.4425 30.2753C57.1935 30.4613 56.939 30.6389 56.6774 30.8081C56.4164 30.9767 56.1501 31.1364 55.8777 31.2865C55.6053 31.4372 55.3287 31.5777 55.0468 31.7087C54.7648 31.8402 54.4781 31.961 54.1878 32.0729C53.8974 32.1841 53.6035 32.2851 53.3066 32.376C53.0091 32.4669 52.7085 32.5477 52.4056 32.6176C52.1027 32.6882 51.798 32.7474 51.4909 32.7964C51.1832 32.8455 50.875 32.8843 50.5655 32.9118C50.2554 32.9393 49.9453 32.9561 49.634 32.9627C49.3233 32.9687 49.0126 32.9645 48.7019 32.9489C48.3912 32.9334 48.0812 32.9077 47.7723 32.8706C47.464 32.8341 47.1563 32.7863 46.851 32.7283C46.5457 32.6703 46.2422 32.6021 45.9417 32.5225C45.8609 32.4974 45.7788 32.4771 45.6956 32.4616C45.6124 32.446 45.5286 32.4358 45.4442 32.4299C45.3598 32.4239 45.2754 32.4227 45.191 32.4269C45.1066 32.4311 45.0228 32.44 44.939 32.4532C44.8558 32.4669 44.7731 32.4855 44.6923 32.5088C44.6109 32.5321 44.5313 32.5602 44.4529 32.5925C44.3751 32.6254 44.299 32.6619 44.2254 32.7037C44.1518 32.745 44.0805 32.7904 44.0117 32.8401C43.9434 32.8897 43.8782 32.9429 43.8159 33.0003C43.7537 33.0572 43.695 33.1181 43.6399 33.1821C43.5843 33.2461 43.5334 33.3131 43.4855 33.3831C43.4382 33.453 43.3951 33.5254 43.3562 33.6001C43.3173 33.6755 43.2826 33.752 43.2526 33.831C43.2227 33.9105 43.1976 33.9906 43.1766 34.0725C43.1557 34.1545 43.1401 34.2376 43.1293 34.3213C43.1179 34.405 43.112 34.4888 43.1108 34.5737C43.0994 39.1035 43.1185 56.3532 43.1108 60.5206C48.4314 75.9883 76.7716 73.8164 111.958 61.6006C112.285 62.4976 113.122 64.5989 113.452 65.4714C109.84 66.9592 106.152 68.2234 102.386 69.2639C77.087 76.3495 56.5104 79.9058 43.1108 68.6599C43.0186 69.948 43.0437 71.2343 43.1856 72.5182C43.3269 73.8021 43.5831 75.0626 43.953 76.3005C54.0064 100.46 87.0865 86.0239 111.634 74.3373L113.644 78.1788C89.2745 89.7482 68.659 98.2104 51.0198 90.6565C71.0463 123.869 124.288 105.982 132.941 72.2844C133.062 71.8879 133.155 71.4848 133.219 71.0752C133.283 70.665 133.317 70.253 133.323 69.838C133.328 69.4236 133.304 69.0103 133.25 68.5989C133.197 68.1881 133.114 67.7827 133.003 67.3826C132.892 66.9831 132.752 66.5938 132.585 66.2141C132.418 65.8344 132.225 65.4678 132.006 65.1156C131.787 64.7634 131.544 64.4285 131.277 64.111C131.011 63.7928 130.722 63.4956 130.413 63.2188C129.959 62.8175 129.529 62.3917 129.123 61.9415C128.717 61.4918 128.337 61.0205 127.984 60.5278C127.631 60.0351 127.306 59.5244 127.011 58.9951C126.716 58.4659 126.451 57.9217 126.217 57.3632C125.983 56.8041 125.781 56.2336 125.611 55.6524C125.442 55.0705 125.305 54.4815 125.202 53.8841C125.099 53.2873 125.029 52.6863 124.993 52.0817C124.958 51.4766 124.957 50.872 124.989 50.2668L125.724 35.5663C155.609 1.33358 177.952 42.6855 138.474 64.8238C138.349 64.8932 138.233 64.9745 138.124 65.0666C138.015 65.1593 137.917 65.2615 137.829 65.3733C137.74 65.4852 137.663 65.6042 137.598 65.7309C137.533 65.8577 137.481 65.9899 137.442 66.1268C137.402 66.2638 137.377 66.4031 137.365 66.5454C137.353 66.6871 137.355 66.8289 137.371 66.9706C137.387 67.1123 137.417 67.251 137.46 67.3868C137.504 67.5225 137.559 67.6529 137.628 67.7779C137.697 67.9029 137.777 68.0195 137.869 68.1289C137.96 68.2383 138.062 68.337 138.173 68.4267C138.284 68.5158 138.403 68.5935 138.53 68.6593C138.656 68.7257 138.788 68.7789 138.924 68.819C139.061 68.859 139.201 68.886 139.342 68.8991C139.485 68.9117 139.627 68.9111 139.769 68.8961C139.911 68.8812 140.049 68.8531 140.186 68.8106C140.322 68.7688 140.453 68.7137 140.579 68.6462C162.804 56.3406 172.454 31.9048 155.718 20.3259Z" fill="white"/>
<path d="M81.7796 49.7991C82.316 49.2214 83.2702 48.4805 83.4756 49.8069C83.4803 49.8326 83.4935 49.8529 83.5151 49.8672C83.5366 49.8822 83.56 49.8876 83.5857 49.8834C83.6114 49.8786 83.6318 49.8661 83.6468 49.8445C83.6617 49.8236 83.6677 49.8003 83.6635 49.7746C83.5767 49.2699 83.3852 48.9732 83.0966 48.8919C82.4782 48.7197 81.6701 49.6346 81.6354 49.6735C81.6192 49.6932 81.6114 49.7166 81.6138 49.7423C81.6156 49.768 81.6264 49.7895 81.6462 49.8069C81.6653 49.8236 81.6887 49.832 81.7144 49.8302C81.7401 49.829 81.7623 49.8182 81.7796 49.7991Z" fill="white"/>
<mask id="mask0_3_2" style="mask-type:luminance" maskUnits="userSpaceOnUse" x="81" y="49" width="6" height="5">
<path d="M81.4265 49.1406H86.892V53.274H81.4265V49.1406Z" fill="white"/>
</mask>
<g mask="url(#mask0_3_2)">
<path d="M86.4072 49.3805C85.8259 49.0564 85.2512 49.5886 84.9375 49.9295C84.106 50.1053 83.074 50.1956 82.8878 49.8488C82.8501 49.774 82.7962 49.7136 82.7262 49.6676C82.6562 49.6215 82.5789 49.5952 82.4951 49.5898C82.3628 49.5886 82.2521 49.6371 82.1635 49.7357C82.0893 49.82 81.9989 49.8787 81.8911 49.9115C81.7834 49.945 81.675 49.9468 81.5661 49.9181C81.5517 49.9139 81.5367 49.9127 81.5218 49.9151C81.5068 49.9175 81.4936 49.9235 81.4811 49.9325C81.4691 49.9414 81.4589 49.9522 81.4523 49.966C81.4451 49.9791 81.4415 49.9935 81.4415 50.009C81.4409 50.2087 81.4415 50.9694 81.4415 51.153C81.6762 51.8353 82.9255 51.739 84.4772 51.2008C84.4916 51.2403 84.5287 51.333 84.543 51.3712C84.3838 51.437 84.2216 51.4926 84.0552 51.5387C82.9399 51.8508 82.0324 52.0075 81.4415 51.5118C81.4332 51.6266 81.4457 51.7384 81.4787 51.849C81.9216 52.9141 83.3805 52.2778 84.4628 51.7623L84.5514 51.9316C83.4769 52.4417 82.5682 52.8148 81.7899 52.4817C82.6735 53.9462 85.0213 53.1575 85.4027 51.6714C85.4248 51.5997 85.4254 51.5279 85.4057 51.4556C85.3853 51.3832 85.347 51.3222 85.2913 51.272C85.2099 51.2002 85.1482 51.1141 85.1063 51.0136C85.0644 50.9138 85.0459 50.8091 85.0519 50.7009L85.0842 50.0527C86.4024 48.5427 87.3877 50.3666 85.6469 51.3425C85.6236 51.3557 85.6086 51.3748 85.6014 51.3999C85.5936 51.4257 85.5966 51.4496 85.6092 51.4729C85.6224 51.4962 85.6409 51.5112 85.6667 51.5189C85.6918 51.5261 85.7163 51.5237 85.7397 51.5112C86.7196 50.9688 87.1453 49.8912 86.4072 49.3805Z" fill="white"/>
</g>
</svg>
