<svg width="89" height="50" viewBox="0 0 89 50" fill="none" xmlns="http://www.w3.org/2000/svg">
<path d="M20.4767 12.026C25.3845 6.74005 34.1102 -0.0339193 35.9867 12.0957C35.9971 12.1514 36.0128 12.2054 36.0338 12.2582C36.0548 12.3108 36.0806 12.3607 36.1115 12.4085C36.1421 12.456 36.1774 12.5001 36.2167 12.5408C36.2561 12.5816 36.299 12.618 36.3456 12.6503C36.3922 12.6826 36.4414 12.7103 36.4933 12.733C36.5452 12.7557 36.5988 12.7733 36.6543 12.7853C36.7096 12.7976 36.7656 12.8046 36.8223 12.8058C36.8791 12.8073 36.9353 12.8029 36.9911 12.7935C37.0471 12.7839 37.1014 12.7689 37.1542 12.7487C37.2074 12.7284 37.2578 12.7031 37.3058 12.673C37.3539 12.6431 37.3985 12.6086 37.4398 12.5698C37.4811 12.5309 37.5183 12.4885 37.5513 12.4425C37.5841 12.3964 37.6124 12.3477 37.636 12.2961C37.6595 12.2445 37.6776 12.1912 37.6906 12.136C37.7036 12.081 37.7114 12.0251 37.7135 11.9684C37.7155 11.912 37.7121 11.8555 37.7034 11.7996C36.9105 7.18637 35.159 4.47081 32.5187 3.73079C26.8636 2.15527 19.4745 10.5202 19.1609 10.8771C19.1245 10.9205 19.0928 10.9668 19.0653 11.0164C19.038 11.0659 19.0158 11.1177 18.9987 11.1715C18.9813 11.2252 18.9695 11.2802 18.963 11.3364C18.9565 11.3926 18.9553 11.449 18.9596 11.5052C18.9642 11.5616 18.9738 11.6171 18.989 11.6716C19.0043 11.7261 19.0245 11.7786 19.0499 11.829C19.0752 11.8797 19.1054 11.9272 19.1399 11.972C19.1747 12.0166 19.2133 12.0576 19.2558 12.0947C19.2985 12.1321 19.3444 12.1649 19.3934 12.1931C19.4421 12.2216 19.4935 12.2447 19.5471 12.2633C19.6005 12.2816 19.6553 12.2946 19.7115 12.3024C19.7675 12.3101 19.8237 12.3125 19.8802 12.3091C19.9367 12.306 19.9925 12.2975 20.0473 12.2835C20.1021 12.2693 20.1552 12.2503 20.2063 12.2259C20.2575 12.2018 20.3058 12.1729 20.3512 12.1391C20.3968 12.1056 20.4385 12.0677 20.4767 12.026Z" fill="white"/>
<path d="M62.7895 8.19578C57.4735 5.2304 52.2218 10.1002 49.3532 13.2182C41.7463 14.8229 32.3138 15.6492 30.6104 12.4787C30.5254 12.3113 30.4301 12.1503 30.3243 11.9952C30.2184 11.8404 30.103 11.6928 29.978 11.553C29.8529 11.4129 29.7194 11.2815 29.5775 11.159C29.4353 11.0362 29.2862 10.9232 29.1293 10.8197C28.9726 10.7165 28.8099 10.6237 28.6412 10.5415C28.4725 10.459 28.2991 10.3881 28.121 10.3283C27.9431 10.2683 27.7621 10.2203 27.5779 10.1839C27.3937 10.1475 27.2079 10.1231 27.0205 10.1108C26.8781 10.1094 26.7362 10.1156 26.5943 10.1291C26.4526 10.1429 26.3121 10.1641 26.1726 10.1925C26.0331 10.2212 25.8955 10.2569 25.7598 10.3001C25.6242 10.3432 25.4911 10.3934 25.3608 10.4508C25.2305 10.5079 25.1035 10.5721 24.9801 10.6427C24.8566 10.7134 24.7371 10.7903 24.6217 10.8737C24.5063 10.9572 24.3958 11.0464 24.2898 11.1414C24.1838 11.2364 24.0834 11.3369 23.9881 11.4425C23.9055 11.5368 23.8198 11.6282 23.7308 11.7165C23.6419 11.8047 23.55 11.8898 23.4551 11.9718C23.3602 12.0538 23.2627 12.1324 23.1623 12.2076C23.0619 12.2826 22.9593 12.3542 22.8538 12.4225C22.7486 12.4905 22.6412 12.5549 22.5313 12.6154C22.4215 12.6761 22.31 12.7328 22.1963 12.7856C22.0826 12.8387 21.967 12.8874 21.8499 12.9325C21.7328 12.9773 21.6143 13.0181 21.4946 13.0547C21.3746 13.0914 21.2534 13.1239 21.1313 13.1521C21.0092 13.1806 20.8863 13.2045 20.7625 13.2242C20.6384 13.244 20.5141 13.2597 20.3893 13.2708C20.2643 13.2819 20.1392 13.2886 20.0137 13.2913C19.8884 13.2937 19.7632 13.292 19.6379 13.2857C19.5126 13.2794 19.3876 13.2691 19.263 13.2541C19.1387 13.2394 19.0146 13.2201 18.8915 13.1967C18.7684 13.1734 18.646 13.1459 18.5249 13.1138C18.4923 13.1037 18.4592 13.0955 18.4257 13.0892C18.3921 13.0829 18.3583 13.0788 18.3243 13.0764C18.2902 13.074 18.2562 13.0735 18.2222 13.0752C18.1881 13.0769 18.1543 13.0805 18.1206 13.0858C18.087 13.0914 18.0537 13.0988 18.0211 13.1082C17.9883 13.1177 17.9562 13.129 17.9245 13.142C17.8932 13.1553 17.8625 13.17 17.8328 13.1869C17.8031 13.2035 17.7744 13.2218 17.7467 13.2418C17.7191 13.2618 17.6928 13.2833 17.6677 13.3065C17.6426 13.3294 17.619 13.354 17.5968 13.3798C17.5743 13.4056 17.5538 13.4326 17.5345 13.4608C17.5154 13.489 17.498 13.5182 17.4823 13.5483C17.4666 13.5787 17.4526 13.6095 17.4406 13.6414C17.4285 13.6734 17.4184 13.7058 17.4099 13.7388C17.4015 13.7718 17.3952 13.8053 17.3909 13.8391C17.3863 13.8729 17.3839 13.9066 17.3834 13.9409C17.3788 15.7674 17.3865 22.7229 17.3834 24.4033C19.5288 30.6403 30.9563 29.7645 45.1445 24.8388C45.276 25.2005 45.6137 26.0478 45.7467 26.3996C44.2905 26.9995 42.8031 27.5093 41.2845 27.9289C31.0835 30.786 22.7865 32.2199 17.3834 27.6853C17.3462 28.2047 17.3563 28.7234 17.4135 29.2411C17.4705 29.7588 17.5738 30.2671 17.723 30.7662C21.7768 40.5079 35.1155 34.6869 45.0136 29.9746L45.8242 31.5236C35.9978 36.1886 27.6851 39.6008 20.5725 36.5549C28.6477 49.9468 50.1162 42.7345 53.6051 29.1468C53.6541 28.9869 53.6916 28.8244 53.7174 28.6592C53.7432 28.4938 53.757 28.3277 53.7592 28.1603C53.7613 27.9932 53.7517 27.8266 53.7299 27.6607C53.7085 27.4951 53.6751 27.3316 53.6303 27.1703C53.5854 27.0092 53.5291 26.8522 53.4618 26.6991C53.3944 26.546 53.3167 26.3982 53.2284 26.2562C53.14 26.1141 53.042 25.9791 52.9343 25.8511C52.8269 25.7228 52.7106 25.6029 52.586 25.4913C52.4028 25.3295 52.2295 25.1578 52.0656 24.9763C51.902 24.7949 51.7487 24.6049 51.6065 24.4062C51.4641 24.2075 51.3333 24.0016 51.2143 23.7882C51.095 23.5748 50.9883 23.3554 50.8939 23.1302C50.7996 22.9047 50.7182 22.6747 50.6497 22.4403C50.5814 22.2057 50.5263 21.9682 50.4846 21.7273C50.443 21.4867 50.415 21.2443 50.4006 21.0006C50.3863 20.7565 50.3858 20.5128 50.3989 20.2687L50.6953 14.3411C62.7456 0.537597 71.7549 17.2117 55.8362 26.1385C55.786 26.1665 55.739 26.1992 55.6953 26.2364C55.6513 26.2738 55.6118 26.315 55.576 26.3601C55.5403 26.4052 55.5094 26.4532 55.4831 26.5043C55.4568 26.5554 55.4358 26.6087 55.4201 26.6639C55.4042 26.7191 55.394 26.7753 55.3892 26.8327C55.3844 26.8898 55.3851 26.947 55.3916 27.0041C55.3981 27.0613 55.41 27.1172 55.4273 27.172C55.445 27.2267 55.4674 27.2793 55.4952 27.3297C55.5229 27.38 55.5553 27.4271 55.5922 27.4712C55.6291 27.5153 55.6702 27.5551 55.7148 27.5913C55.7597 27.6272 55.8078 27.6585 55.8587 27.6851C55.9096 27.7118 55.9627 27.7333 56.0178 27.7495C56.073 27.7656 56.1293 27.7765 56.1865 27.7818C56.2439 27.7868 56.3011 27.7866 56.3584 27.7806C56.4156 27.7745 56.4716 27.7632 56.5266 27.7461C56.5814 27.7292 56.6343 27.707 56.6849 27.6798C65.6467 22.7179 69.5381 12.8647 62.7895 8.19578Z" fill="white"/>
<path d="M32.9757 20.0803C33.1919 19.8474 33.5767 19.5486 33.6595 20.0834C33.6614 20.0938 33.6667 20.102 33.6754 20.1078C33.6841 20.1138 33.6935 20.116 33.7039 20.1143C33.7143 20.1124 33.7225 20.1073 33.7285 20.0986C33.7346 20.0902 33.737 20.0808 33.7353 20.0704C33.7003 19.8669 33.6231 19.7473 33.5067 19.7145C33.2574 19.6451 32.9315 20.014 32.9175 20.0297C32.911 20.0376 32.9078 20.047 32.9088 20.0574C32.9095 20.0678 32.9139 20.0764 32.9218 20.0834C32.9296 20.0902 32.939 20.0936 32.9494 20.0928C32.9597 20.0923 32.9687 20.088 32.9757 20.0803Z" fill="white"/>
<mask id="mask0_4_177" style="mask-type:luminance" maskUnits="userSpaceOnUse" x="32" y="19" width="4" height="3">
<path d="M32.8333 19.8147H35.0371V21.4814H32.8333V19.8147Z" fill="white"/>
</mask>
<g mask="url(#mask0_4_177)">
<path d="M34.8416 19.9115C34.6072 19.7808 34.3755 19.9954 34.249 20.1328C33.9138 20.2037 33.4976 20.2401 33.4225 20.1003C33.4073 20.0701 33.3856 20.0458 33.3574 20.0272C33.3291 20.0086 33.298 19.998 33.2642 19.9959C33.2109 19.9954 33.1662 20.0149 33.1305 20.0547C33.1005 20.0887 33.0641 20.1123 33.0206 20.1256C32.9772 20.1391 32.9335 20.1398 32.8896 20.1282C32.8838 20.1266 32.8777 20.1261 32.8717 20.127C32.8657 20.128 32.8604 20.1304 32.8553 20.134C32.8505 20.1376 32.8464 20.142 32.8437 20.1475C32.8408 20.1528 32.8394 20.1586 32.8394 20.1649C32.8391 20.2454 32.8394 20.5521 32.8394 20.6262C32.934 20.9013 33.4378 20.8625 34.0634 20.6455C34.0692 20.6614 34.0842 20.6987 34.09 20.7142C34.0258 20.7407 33.9603 20.7631 33.8932 20.7817C33.4435 20.9076 33.0776 20.9707 32.8394 20.7708C32.836 20.8171 32.8411 20.8622 32.8543 20.9068C33.033 21.3363 33.6212 21.0797 34.0576 20.8719L34.0933 20.9401C33.6601 21.1458 33.2936 21.2963 32.9798 21.162C33.3361 21.7525 34.2828 21.4344 34.4366 20.8352C34.4455 20.8063 34.4458 20.7774 34.4378 20.7482C34.4296 20.719 34.4141 20.6944 34.3917 20.6742C34.3589 20.6452 34.334 20.6105 34.3171 20.57C34.3002 20.5297 34.2927 20.4875 34.2951 20.4439L34.3082 20.1825C34.8397 19.5737 35.237 20.3091 34.5351 20.7026C34.5257 20.7079 34.5196 20.7156 34.5167 20.7258C34.5136 20.7361 34.5148 20.7458 34.5199 20.7552C34.5252 20.7646 34.5327 20.7706 34.543 20.7737C34.5532 20.7766 34.5631 20.7757 34.5725 20.7706C34.9676 20.5519 35.1393 20.1174 34.8416 19.9115Z" fill="white"/>
</g>
</svg>
